<svg width="19" height="22" viewBox="0 0 19 22" fill="none" xmlns="http://www.w3.org/2000/svg">
<path d="M18.875 9.22266H18.834C16.9473 9.22266 15.2246 8.64844 13.8301 7.62305V14.9648C13.8301 18.6562 10.8359 21.6094 7.14453 21.6094C3.45312 21.6094 0.5 18.6562 0.5 14.9648C0.5 11.2734 3.45312 8.2793 7.14453 8.2793C7.47266 8.2793 7.75977 8.32031 8.08789 8.36133V12.0527C7.75977 11.9297 7.47266 11.8887 7.14453 11.8887C5.46289 11.8887 4.06836 13.2832 4.06836 14.9648C4.06836 16.6465 5.46289 18.041 7.14453 18.041C8.82617 18.041 10.2207 16.6465 10.2207 14.9648V0.609375H13.8301C13.8301 0.650391 13.8301 0.650391 13.8301 0.691406C13.8301 0.978516 13.8301 1.26562 13.9121 1.55273C14.1582 2.90625 14.9785 4.0957 16.127 4.83398C16.9062 5.36719 17.8496 5.6543 18.834 5.6543C18.834 5.6543 18.834 5.6543 18.875 5.6543V9.22266Z" fill="white"/>
</svg>
